{
  "accessors": [
    {
      "bufferView": 2,
      "componentType": 5126,
      "count": 51714,
      "max": [
        3.5152108669281006,
        2.5212109088897705,
        2.017393112182617
      ],
      "min": [
        -5.028421878814697,
        -2.2195253372192383,
        -2.163377523422241
      ],
      "type": "VEC3"
    },
    {
      "bufferView": 2,
      "byteOffset": 620568,
      "componentType": 5126,
      "count": 51714,
      "max": [
        0.9998856782913208,
        0.9998160600662231,
        0.9999749660491943
      ],
      "min": [
        -0.9996821880340576,
        -0.9999549388885498,
        -0.9999998807907104
      ],
      "type": "VEC3"
    },
    {
      "bufferView": 1,
      "componentType": 5126,
      "count": 51714,
      "max": [
        1.0,
        0.4971098005771637
      ],
      "min": [
        0.0,
        0.017606884241104126
      ],
      "type": "VEC2"
    },
    {
      "bufferView": 0,
      "componentType": 5125,
      "count": 310272,
      "type": "SCALAR"
    }
  ],
  "asset": {
    "extras": {
      "author": "gaelinix (https://sketchfab.com/gaelinix)",
      "license": "CC-BY-4.0 (http://creativecommons.org/licenses/by/4.0/)",
      "source": "https://sketchfab.com/3d-models/cloud-high-poly-7f3c3f525f8e42d3b99dcfe3abbc5e54",
      "title": "CLOUD high poly"
    },
    "generator": "Sketchfab-12.65.0",
    "version": "2.0"
  },
  "bufferViews": [
    {
      "buffer": 0,
      "byteLength": 1241088,
      "name": "floatBufferViews",
      "target": 34963
    },
    {
      "buffer": 0,
      "byteLength": 413712,
      "byteOffset": 1241088,
      "byteStride": 8,
      "name": "floatBufferViews",
      "target": 34962
    },
    {
      "buffer": 0,
      "byteLength": 1241136,
      "byteOffset": 1654800,
      "byteStride": 12,
      "name": "floatBufferViews",
      "target": 34962
    }
  ],
  "buffers": [
    {
      "byteLength": 2895936,
      "uri": "scene.bin"
    }
  ],
  "materials": [
    {
      "doubleSided": true,
      "name": "Material",
      "pbrMetallicRoughness": {
        "baseColorFactor": [
          0.8,
          0.8,
          0.8,
          1.0
        ],
        "metallicFactor": 0.0,
        "roughnessFactor": 0.8211145618000169
      }
    }
  ],
  "meshes": [
    {
      "name": "Nube.001_Material_0",
      "primitives": [
        {
          "attributes": {
            "NORMAL": 1,
            "POSITION": 0,
            "TEXCOORD_0": 2
          },
          "indices": 3,
          "material": 0,
          "mode": 4
        }
      ]
    }
  ],
  "nodes": [
    {
      "children": [
        1
      ],
      "matrix": [
        1.0,
        0.0,
        0.0,
        0.0,
        0.0,
        2.220446049250313e-16,
        -1.0,
        0.0,
        0.0,
        1.0,
        2.220446049250313e-16,
        0.0,
        0.0,
        0.0,
        0.0,
        1.0
      ],
      "name": "Sketchfab_model"
    },
    {
      "children": [
        2
      ],
      "matrix": [
        0.009999999776482582,
        0.0,
        0.0,
        0.0,
        0.0,
        0.0,
        0.009999999776482582,
        0.0,
        0.0,
        -0.009999999776482582,
        0.0,
        0.0,
        0.0,
        0.0,
        0.0,
        1.0
      ],
      "name": "a1daeed44fe14376a0fc6934aef3ab4d.fbx"
    },
    {
      "children": [
        3
      ],
      "name": "RootNode"
    },
    {
      "children": [
        4
      ],
      "matrix": [
        58.20449447631836,
        0.0,
        0.0,
        0.0,
        0.0,
        -9.482715783739885e-06,
        -58.20449447631759,
        0.0,
        0.0,
        58.20449447631759,
        -9.482715783739885e-06,
        0.0,
        677.2333374023438,
        0.0,
        0.0,
        1.0
      ],
      "name": "Nube.001"
    },
    {
      "mesh": 0,
      "name": "Nube.001_Material_0"
    }
  ],
  "scene": 0,
  "scenes": [
    {
      "name": "Sketchfab_Scene",
      "nodes": [
        0
      ]
    }
  ]
}
