{
  "accessors": [
    {
      "bufferView": 2,
      "componentType": 5126,
      "count": 4007,
      "max": [
        228.3662109375,
        188.84889221191406,
        320.02960205078125
      ],
      "min": [
        -198.9996795654297,
        -209.88278198242188,
        -208.32286071777344
      ],
      "type": "VEC3"
    },
    {
      "bufferView": 2,
      "byteOffset": 48084,
      "componentType": 5126,
      "count": 4007,
      "max": [
        1.0,
        1.0,
        1.0
      ],
      "min": [
        -1.0,
        -1.0,
        -1.0
      ],
      "type": "VEC3"
    },
    {
      "bufferView": 1,
      "componentType": 5126,
      "count": 4007,
      "max": [
        0.15149536728858948,
        10.431940078735352
      ],
      "min": [
        -13.057315826416016,
        -0.25220349431037903
      ],
      "type": "VEC2"
    },
    {
      "bufferView": 0,
      "componentType": 5125,
      "count": 5475,
      "type": "SCALAR"
    },
    {
      "bufferView": 2,
      "byteOffset": 96168,
      "componentType": 5126,
      "count": 168,
      "max": [
        224.87136840820313,
        218.10935974121094,
        315.74859619140625
      ],
      "min": [
        -143.6776580810547,
        -201.64724731445313,
        -202.7678680419922
      ],
      "type": "VEC3"
    },
    {
      "bufferView": 2,
      "byteOffset": 98184,
      "componentType": 5126,
      "count": 168,
      "max": [
        1.0,
        1.0,
        1.0
      ],
      "min": [
        -1.0,
        -1.0,
        -1.0
      ],
      "type": "VEC3"
    },
    {
      "bufferView": 1,
      "byteOffset": 32056,
      "componentType": 5126,
      "count": 168,
      "max": [
        1.0,
        1.0
      ],
      "min": [
        0.0,
        0.0
      ],
      "type": "VEC2"
    },
    {
      "bufferView": 0,
      "byteOffset": 21900,
      "componentType": 5125,
      "count": 246,
      "type": "SCALAR"
    },
    {
      "bufferView": 2,
      "byteOffset": 100200,
      "componentType": 5126,
      "count": 18569,
      "max": [
        258.41705322265625,
        220.77320861816406,
        320.30645751953125
      ],
      "min": [
        -258.4169921875,
        -212.40951538085938,
        -324.6369323730469
      ],
      "type": "VEC3"
    },
    {
      "bufferView": 2,
      "byteOffset": 323028,
      "componentType": 5126,
      "count": 18569,
      "max": [
        1.0,
        1.0,
        1.0
      ],
      "min": [
        -1.0,
        -1.0,
        -1.0
      ],
      "type": "VEC3"
    },
    {
      "bufferView": 1,
      "byteOffset": 33400,
      "componentType": 5126,
      "count": 18569,
      "max": [
        1.3075408935546875,
        10.240157127380371
      ],
      "min": [
        -3.895291805267334,
        -1.9294183254241943
      ],
      "type": "VEC2"
    },
    {
      "bufferView": 0,
      "byteOffset": 22884,
      "componentType": 5125,
      "count": 75228,
      "type": "SCALAR"
    },
    {
      "bufferView": 2,
      "byteOffset": 545856,
      "componentType": 5126,
      "count": 4188,
      "max": [
        69.94279479980469,
        199.73936462402344,
        324.6370849609375
      ],
      "min": [
        -212.5890655517578,
        -220.77304077148438,
        -301.73272705078125
      ],
      "type": "VEC3"
    },
    {
      "bufferView": 2,
      "byteOffset": 596112,
      "componentType": 5126,
      "count": 4188,
      "max": [
        0.9999992251396179,
        1.0,
        1.0
      ],
      "min": [
        -0.9999998211860657,
        -1.0,
        -1.0
      ],
      "type": "VEC3"
    },
    {
      "bufferView": 1,
      "byteOffset": 181952,
      "componentType": 5126,
      "count": 4188,
      "max": [
        13.04609489440918,
        6.262187957763672
      ],
      "min": [
        -13.046093940734863,
        -7.014532566070557
      ],
      "type": "VEC2"
    },
    {
      "bufferView": 0,
      "byteOffset": 323796,
      "componentType": 5125,
      "count": 11163,
      "type": "SCALAR"
    }
  ],
  "asset": {
    "extras": {
      "author": "Jerez Felipe (https://sketchfab.com/fjerez)",
      "license": "CC-BY-4.0 (http://creativecommons.org/licenses/by/4.0/)",
      "source": "https://sketchfab.com/3d-models/kame-house-b03b25c781f14a61b0338ce583eb98b7",
      "title": "Kame House"
    },
    "generator": "Sketchfab-12.68.0",
    "version": "2.0"
  },
  "bufferViews": [
    {
      "buffer": 0,
      "byteLength": 368448,
      "name": "floatBufferViews",
      "target": 34963
    },
    {
      "buffer": 0,
      "byteLength": 215456,
      "byteOffset": 368448,
      "byteStride": 8,
      "name": "floatBufferViews",
      "target": 34962
    },
    {
      "buffer": 0,
      "byteLength": 646368,
      "byteOffset": 583904,
      "byteStride": 12,
      "name": "floatBufferViews",
      "target": 34962
    }
  ],
  "buffers": [
    {
      "byteLength": 1230272,
      "uri": "scene.bin"
    }
  ],
  "materials": [
    {
      "doubleSided": true,
      "name": "pink",
      "pbrMetallicRoughness": {
        "baseColorFactor": [
          0.972549,
          0.470588,
          0.74902,
          1.0
        ],
        "metallicFactor": 0.0,
        "roughnessFactor": 0.6
      }
    },
    {
      "doubleSided": true,
      "name": "blue",
      "pbrMetallicRoughness": {
        "baseColorFactor": [
          0.164706,
          0.32549,
          0.588235,
          1.0
        ],
        "metallicFactor": 0.0,
        "roughnessFactor": 0.6
      }
    },
    {
      "doubleSided": true,
      "name": "white",
      "pbrMetallicRoughness": {
        "baseColorFactor": [
          0.952941,
          0.952941,
          0.952941,
          1.0
        ],
        "metallicFactor": 0.0,
        "roughnessFactor": 0.6
      }
    },
    {
      "doubleSided": true,
      "name": "material",
      "pbrMetallicRoughness": {
        "baseColorFactor": [
          0.847059,
          0.0509804,
          0.0509804,
          1.0
        ],
        "metallicFactor": 0.0,
        "roughnessFactor": 0.6
      }
    }
  ],
  "meshes": [
    {
      "name": "fullwall_pink_0",
      "primitives": [
        {
          "attributes": {
            "NORMAL": 1,
            "POSITION": 0,
            "TEXCOORD_0": 2
          },
          "indices": 3,
          "material": 0,
          "mode": 4
        }
      ]
    },
    {
      "name": "fullwall_blue_0",
      "primitives": [
        {
          "attributes": {
            "NORMAL": 5,
            "POSITION": 4,
            "TEXCOORD_0": 6
          },
          "indices": 7,
          "material": 1,
          "mode": 4
        }
      ]
    },
    {
      "name": "fullwall_white_0",
      "primitives": [
        {
          "attributes": {
            "NORMAL": 9,
            "POSITION": 8,
            "TEXCOORD_0": 10
          },
          "indices": 11,
          "material": 2,
          "mode": 4
        }
      ]
    },
    {
      "name": "fullwall_red_0",
      "primitives": [
        {
          "attributes": {
            "NORMAL": 13,
            "POSITION": 12,
            "TEXCOORD_0": 14
          },
          "indices": 15,
          "material": 3,
          "mode": 4
        }
      ]
    }
  ],
  "nodes": [
    {
      "children": [
        1
      ],
      "matrix": [
        1.0,
        0.0,
        0.0,
        0.0,
        0.0,
        2.220446049250313e-16,
        -1.0,
        0.0,
        0.0,
        1.0,
        2.220446049250313e-16,
        0.0,
        0.0,
        0.0,
        0.0,
        1.0
      ],
      "name": "Sketchfab_model"
    },
    {
      "children": [
        2
      ],
      "matrix": [
        1.0,
        0.0,
        0.0,
        0.0,
        0.0,
        0.0,
        1.0,
        0.0,
        0.0,
        -1.0,
        0.0,
        0.0,
        0.0,
        0.0,
        0.0,
        1.0
      ],
      "name": "Kame House.fbx"
    },
    {
      "children": [
        3
      ],
      "name": "RootNode"
    },
    {
      "children": [
        4,
        5,
        6,
        7
      ],
      "matrix": [
        1.2287812268706401e-07,
        -0.9999998211860581,
        -6.123232900817159e-17,
        0.0,
        -0.9999998807907029,
        -1.2287813012219447e-07,
        -1.2246466531580784e-16,
        0.0,
        1.2246467239061807e-16,
        6.123235500559939e-17,
        -1.0,
        0.0,
        -43.202423095703125,
        258.9227294921875,
        18.40814208984375,
        1.0
      ],
      "name": "fullwall"
    },
    {
      "mesh": 0,
      "name": "fullwall_pink_0"
    },
    {
      "mesh": 1,
      "name": "fullwall_blue_0"
    },
    {
      "mesh": 2,
      "name": "fullwall_white_0"
    },
    {
      "mesh": 3,
      "name": "fullwall_red_0"
    }
  ],
  "scene": 0,
  "scenes": [
    {
      "name": "Sketchfab_Scene",
      "nodes": [
        0
      ]
    }
  ]
}
