{
  "accessors": [
    {
      "bufferView": 2,
      "componentType": 5126,
      "count": 65532,
      "max": [
        50.40472412109375,
        63.54216384887695,
        56.50425720214844
      ],
      "min": [
        -53.457176208496094,
        -63.15573501586914,
        -64.802734375
      ],
      "type": "VEC3"
    },
    {
      "bufferView": 2,
      "byteOffset": 786384,
      "componentType": 5126,
      "count": 65532,
      "max": [
        0.9999995827674866,
        0.9999961853027344,
        0.9999836087226868
      ],
      "min": [
        -0.9999966621398926,
        -0.9999966621398926,
        -0.9999564290046692
      ],
      "type": "VEC3"
    },
    {
      "bufferView": 1,
      "componentType": 5126,
      "count": 65532,
      "max": [
        0.9990501403808594,
        0.9960880279541016
      ],
      "min": [
        0.0,
        0.0
      ],
      "type": "VEC2"
    },
    {
      "bufferView": 0,
      "componentType": 5125,
      "count": 338052,
      "type": "SCALAR"
    },
    {
      "bufferView": 2,
      "byteOffset": 1572768,
      "componentType": 5126,
      "count": 65532,
      "max": [
        50.20232391357422,
        63.51536560058594,
        56.541259765625
      ],
      "min": [
        -53.345176696777344,
        -62.77713394165039,
        -64.39474487304688
      ],
      "type": "VEC3"
    },
    {
      "bufferView": 2,
      "byteOffset": 2359152,
      "componentType": 5126,
      "count": 65532,
      "max": [
        0.9999331831932068,
        0.9999879002571106,
        0.9999836087226868
      ],
      "min": [
        -0.999995231628418,
        -0.9999966621398926,
        -0.9999247789382935
      ],
      "type": "VEC3"
    },
    {
      "bufferView": 1,
      "byteOffset": 524256,
      "componentType": 5126,
      "count": 65532,
      "max": [
        1.0,
        0.9989070892333984
      ],
      "min": [
        0.0,
        0.0
      ],
      "type": "VEC2"
    },
    {
      "bufferView": 0,
      "byteOffset": 1352208,
      "componentType": 5125,
      "count": 305982,
      "type": "SCALAR"
    },
    {
      "bufferView": 2,
      "byteOffset": 3145536,
      "componentType": 5126,
      "count": 18954,
      "max": [
        48.418724060058594,
        62.076866149902344,
        54.20526123046875
      ],
      "min": [
        -53.22418212890625,
        -63.15573501586914,
        -64.64874267578125
      ],
      "type": "VEC3"
    },
    {
      "bufferView": 2,
      "byteOffset": 3372984,
      "componentType": 5126,
      "count": 18954,
      "max": [
        0.9999712109565735,
        0.9999827146530151,
        0.9950734376907349
      ],
      "min": [
        -0.9999191761016846,
        -0.9999842047691345,
        -0.9999564290046692
      ],
      "type": "VEC3"
    },
    {
      "bufferView": 1,
      "byteOffset": 1048512,
      "componentType": 5126,
      "count": 18954,
      "max": [
        0.9982719421386719,
        0.9984931945800781
      ],
      "min": [
        0.0,
        0.0
      ],
      "type": "VEC2"
    },
    {
      "bufferView": 0,
      "byteOffset": 2576136,
      "componentType": 5125,
      "count": 56700,
      "type": "SCALAR"
    }
  ],
  "asset": {
    "extras": {
      "author": "Revopoint3d (https://sketchfab.com/Revopoint3d)",
      "license": "CC-BY-4.0 (http://creativecommons.org/licenses/by/4.0/)",
      "source": "https://sketchfab.com/3d-models/kameseninscanned-by-revopoint-pop-b23ebc1f48d644f5b3c2539c56f49ee8",
      "title": "KameSenin（scanned by Revopoint POP）"
    },
    "generator": "Sketchfab-14.59.0",
    "version": "2.0"
  },
  "bufferViews": [
    {
      "buffer": 0,
      "byteLength": 2802936,
      "name": "floatBufferViews",
      "target": 34963
    },
    {
      "buffer": 0,
      "byteLength": 1200144,
      "byteOffset": 2802936,
      "byteStride": 8,
      "name": "floatBufferViews",
      "target": 34962
    },
    {
      "buffer": 0,
      "byteLength": 3600432,
      "byteOffset": 4003080,
      "byteStride": 12,
      "name": "floatBufferViews",
      "target": 34962
    }
  ],
  "buffers": [
    {
      "byteLength": 7603512,
      "uri": "scene.bin"
    }
  ],
  "images": [
    {
      "uri": "textures/Default_OBJ.002_baseColor.png"
    }
  ],
  "materials": [
    {
      "doubleSided": true,
      "name": "Default_OBJ.002",
      "pbrMetallicRoughness": {
        "baseColorTexture": {
          "index": 0
        },
        "metallicFactor": 0.0,
        "roughnessFactor": 0.8211145618000169
      }
    }
  ],
  "meshes": [
    {
      "name": "kame-densecloud-remeshed2_Default OBJ.002_0",
      "primitives": [
        {
          "attributes": {
            "NORMAL": 1,
            "POSITION": 0,
            "TEXCOORD_0": 2
          },
          "indices": 3,
          "material": 0,
          "mode": 4
        }
      ]
    },
    {
      "name": "kame-densecloud-remeshed2_Default OBJ.002_0",
      "primitives": [
        {
          "attributes": {
            "NORMAL": 5,
            "POSITION": 4,
            "TEXCOORD_0": 6
          },
          "indices": 7,
          "material": 0,
          "mode": 4
        }
      ]
    },
    {
      "name": "kame-densecloud-remeshed2_Default OBJ.002_0",
      "primitives": [
        {
          "attributes": {
            "NORMAL": 9,
            "POSITION": 8,
            "TEXCOORD_0": 10
          },
          "indices": 11,
          "material": 0,
          "mode": 4
        }
      ]
    }
  ],
  "nodes": [
    {
      "children": [
        1
      ],
      "matrix": [
        1.0,
        0.0,
        0.0,
        0.0,
        0.0,
        2.220446049250313e-16,
        -1.0,
        0.0,
        0.0,
        1.0,
        2.220446049250313e-16,
        0.0,
        0.0,
        0.0,
        0.0,
        1.0
      ],
      "name": "Sketchfab_model"
    },
    {
      "children": [
        2
      ],
      "matrix": [
        0.009999999776482582,
        0.0,
        0.0,
        0.0,
        0.0,
        0.0,
        0.009999999776482582,
        0.0,
        0.0,
        -0.009999999776482582,
        0.0,
        0.0,
        0.0,
        0.0,
        0.0,
        1.0
      ],
      "name": "kame1.fbx"
    },
    {
      "children": [
        3
      ],
      "name": "RootNode"
    },
    {
      "children": [
        4,
        5,
        6
      ],
      "matrix": [
        -6.063708726488047,
        1.2808374878816327,
        7.847988911620993,
        0.0,
        5.90103508517911,
        7.340199921562776,
        3.3614413845776463,
        0.0,
        -5.33003372885896,
        6.669404665193377,
        -5.2067091341939715,
        0.0,
        0.0,
        0.0,
        0.0,
        1.0
      ],
      "name": "kame-densecloud-remeshed2"
    },
    {
      "mesh": 0,
      "name": "kame-densecloud-remeshed2_Default OBJ.002_0"
    },
    {
      "mesh": 1,
      "name": "kame-densecloud-remeshed2_Default OBJ.002_0"
    },
    {
      "mesh": 2,
      "name": "kame-densecloud-remeshed2_Default OBJ.002_0"
    }
  ],
  "samplers": [
    {
      "magFilter": 9729,
      "minFilter": 9987,
      "wrapS": 10497,
      "wrapT": 10497
    }
  ],
  "scene": 0,
  "scenes": [
    {
      "name": "Sketchfab_Scene",
      "nodes": [
        0
      ]
    }
  ],
  "textures": [
    {
      "sampler": 0,
      "source": 0
    }
  ]
}
